<svg width="442" height="377" viewBox="0 0 442 377" fill="none" xmlns="http://www.w3.org/2000/svg"><path d="M0 299H434V377H0V299Z" fill="#8D4400"/><path fill-rule="evenodd" clip-rule="evenodd" d="M140.491 170.783C163.979 160.834 168.192 137.131 165.609 123.901L186.894 119.745C190.687 139.174 185.084 175.448 148.95 190.753L140.491 170.783Z" fill="#FFAADE"/><path d="M172.9 127.394C181.128 129.353 189.387 124.272 191.347 116.044C193.306 107.816 188.225 99.557 179.997 97.5971C171.769 95.6373 163.51 100.719 161.55 108.947C159.59 117.175 164.672 125.434 172.9 127.394Z" fill="#DA8E74"/><path fill-rule="evenodd" clip-rule="evenodd" d="M157.318 84.6428C160.337 83.1787 163.971 84.439 165.435 87.4577C166.394 89.435 168.12 93.8275 169.66 98.3958C171.168 102.87 172.774 108.315 173.165 112.205C173.5 115.543 171.065 118.521 167.727 118.856C164.389 119.191 161.411 116.756 161.076 113.418C160.838 111.043 159.661 106.77 158.146 102.276C156.663 97.8759 155.129 94.0495 154.503 92.7596C153.039 89.7409 154.299 86.1069 157.318 84.6428Z" fill="#DA8E74"/><path d="M157.729 120.991C156.965 117.452 159.215 113.963 162.754 113.199L167.599 112.153C171.138 111.389 174.627 113.639 175.391 117.178C176.155 120.717 173.905 124.205 170.366 124.969L165.521 126.016C161.982 126.78 158.493 124.53 157.729 120.991Z" fill="#DA8E74"/><path d="M106.776 122.894C120.627 118.66 128.423 104 124.189 90.1492C120.018 76.503 105.726 68.7338 92.0589 72.5561L92.0568 72.5491C82.2699 75.5406 76.2547 73.3661 69.5931 64.7011L69.5895 64.7372C61.3796 54.9121 47.7948 50.4075 34.7808 54.3854C17.4393 59.686 7.67822 78.041 12.9788 95.3826C13.6305 97.5149 14.4796 99.5325 15.4999 101.422C6.62393 107.597 2.32284 119.007 5.65354 129.904C9.78386 143.417 24.0865 151.023 37.5994 146.893C50.4878 142.953 58.0029 129.76 55.086 116.824C63.0751 114.074 69.3567 108.511 73.1561 101.593C73.3465 102.89 73.6367 104.189 74.0314 105.48C78.2651 119.331 92.9253 127.127 106.776 122.894Z" fill="#3D3D3D"/><path fill-rule="evenodd" clip-rule="evenodd" d="M57.3165 89.6422C28.6798 103.988 17.0945 138.831 31.4401 167.468C35.3127 175.199 36.4328 179.94 36.689 182.663C36.881 184.707 36.7603 186.87 35.1588 190.414C21.971 219.603 34.9419 253.955 64.1302 267.142C93.3178 280.33 127.67 267.359 140.858 238.171C161.967 191.452 151.81 148.791 135.142 115.518C120.797 86.8819 85.9531 75.2968 57.3165 89.6422Z" fill="#DA8E74"/><path d="M150.026 210.413L34.3816 192.222C22.5132 221.008 35.5441 254.228 64.1324 267.145C93.32 280.332 127.673 267.362 140.86 238.174C145.122 228.74 148.11 219.472 150.026 210.413Z" fill="#2BE69C"/><path d="M151.395 204.664L96.7089 215.928L34.0658 197.67C33.7544 198.278 33.3955 198.917 32.9829 199.589C32.875 199.765 32.7685 199.94 32.6628 200.117C31.7315 202.903 31.0245 205.718 30.5332 208.544C59.3838 230.366 110.837 242.367 146.139 227.877C148.698 219.994 150.409 212.248 151.395 204.664Z" fill="#A56644"/><path d="M90.0855 219.713L83.1465 218.27L79.4375 236.113L86.3764 237.556L90.0855 219.713Z" fill="#2BE69C"/><path d="M152.63 178.357C142.441 187.373 109.036 196.295 35.1236 176.046C36.1334 178.993 36.5459 181.141 36.6887 182.662C36.8809 184.706 36.76 186.869 35.1586 190.413C33.6119 193.837 32.4249 199.475 31.582 202.997C63.8418 216.363 115.487 231.504 149.263 215.922C152.192 203.714 153.149 189.727 152.63 178.357Z" fill="#FFAADE"/><path d="M140.484 241.746C147.647 240.472 152.476 233.587 151.27 226.366C150.064 219.145 143.279 214.324 136.115 215.597C128.952 216.87 124.123 223.756 125.329 230.977C126.535 238.198 133.32 243.019 140.484 241.746Z" fill="#FF9600"/><path d="M125.822 179.667L139.845 181.497L130.819 197.327C129.903 198.933 127.778 199.356 126.318 198.223L111.226 186.514L125.822 179.667Z" fill="#DA8E74"/><path d="M87.053 143.332L125.131 144.686L105.647 172.212C103.53 175.204 100.159 177.062 96.4981 177.255C88.9224 177.656 82.8857 171.005 84.0153 163.504L87.053 143.332Z" fill="#B82C2C"/><path d="M105.46 172.469C103.334 175.31 100.053 177.068 96.4981 177.256C88.9224 177.656 82.8857 171.005 84.0153 163.504L84.0185 163.483C85.9006 162.472 88.03 161.85 90.305 161.729C97.3761 161.356 103.56 165.954 105.46 172.469Z" fill="#EF4949"/><path d="M130.874 157.734C136.977 152.195 137.266 142.697 131.509 136.798L120.832 125.856C117.641 122.585 113.233 121.141 108.968 121.615C107.321 121.018 105.545 120.727 103.722 120.796L86.2053 121.46C76.383 121.832 69.4196 131.187 71.8819 140.703C73.9523 148.704 81.9707 153.643 90.0482 151.893L95.3154 150.752C102.112 149.579 103.638 149.921 108.189 154.437L110.419 156.845C115.84 162.7 124.965 163.096 130.874 157.734Z" fill="#3D3D3D"/><path d="M13.96 171.315L72.5731 160.854L85.7627 234.75L27.1496 245.212L13.96 171.315Z" fill="#AEE5FF"/><path d="M7.16133 192.745C6.90848 191.769 6.91525 190.745 7.18097 189.773L8.93554 183.355C9.48123 181.359 11.0533 179.808 13.0563 179.288L64.1861 166.033C65.0092 165.82 65.8496 166.314 66.063 167.137L81.4226 226.385C81.636 227.208 81.1416 228.049 80.3185 228.262L73.2739 230.088L75.8061 239.856C76.0195 240.679 75.5252 241.519 74.702 241.733L28.9042 253.606C25.8173 254.406 22.666 252.552 21.8658 249.465L7.16133 192.745Z" fill="#FF4B4B"/><path d="M13.8481 181.072C12.487 181.425 11.4266 182.492 11.082 183.855L9.8238 188.833C9.53705 189.967 10.5704 190.994 11.703 190.701L51.5228 180.378L58.4005 178.656C59.2206 178.45 60.0529 178.945 60.265 179.763L75.0482 236.787C74.0879 233.083 76.3123 229.302 80.0167 228.341L64.7537 169.466L64.6832 169.484L64.2968 167.994L13.8481 181.072Z" fill="white"/><path d="M41.709 204.377L48.2473 194.585C49.6562 192.475 52.5089 191.907 54.619 193.316C56.7291 194.725 57.2975 197.577 55.8885 199.687L49.3503 209.48L41.709 204.377Z" fill="#DA8E74"/><path d="M3.54327 222.629C1.99343 216.042 6.07733 209.445 12.6649 207.895L45.5228 200.165C52.1104 198.615 58.707 202.699 60.2569 209.286C61.8067 215.874 57.7228 222.471 51.1352 224.021L18.2774 231.751C11.6898 233.301 5.09311 229.217 3.54327 222.629Z" fill="#FFAADE"/><path d="M44.3467 200.439L56.8555 197.497C63.4418 195.947 70.0369 200.031 71.5861 206.617C73.1353 213.203 69.052 219.799 62.4657 221.348L49.9568 224.29L44.3467 200.439Z" fill="#DA8E74"/><path d="M153.214 226.152C162.093 224.574 168.079 216.039 166.584 207.088C165.089 198.138 156.679 192.162 147.8 193.74C138.921 195.318 132.935 203.853 134.43 212.804C135.925 221.754 144.335 227.731 153.214 226.152Z" fill="#FF9600"/><path d="M102.179 261.144C97.3756 248.395 104.976 233.647 118.416 231.258L159.967 223.872C168.181 222.412 176.363 226.141 179.661 233.783C183.885 243.57 189.316 258.84 192.574 278.344H107.96C106.259 272.463 104.227 266.576 102.179 261.144Z" fill="#FFC6B7"/><path d="M165.837 264.669C165.752 263.089 164.403 261.877 162.823 261.962C161.244 262.047 160.032 263.396 160.117 264.976L160.573 273.48C160.658 275.06 162.008 276.272 163.587 276.187C165.167 276.102 166.379 274.753 166.294 273.173L165.837 264.669Z" fill="#CC4C4C"/><path d="M142.409 235.559L142.17 235.626C135.036 237.615 130.799 245.028 132.707 252.184C134.615 259.34 141.944 263.529 149.078 261.54L149.317 261.473C156.451 259.484 160.687 252.07 158.78 244.914C156.872 237.759 149.542 233.57 142.409 235.559Z" fill="white"/><path d="M176.82 239.091C175.254 233.216 169.237 229.778 163.38 231.411C157.524 233.044 154.045 239.13 155.612 245.005L156.428 248.067C157.994 253.942 164.012 257.38 169.868 255.747C175.725 254.114 179.203 248.028 177.637 242.153L176.82 239.091Z" fill="white"/><path d="M172.976 240.475C171.795 236.047 167.26 233.455 162.845 234.686C158.431 235.916 155.809 240.504 156.99 244.932L157.125 245.44C158.306 249.868 162.841 252.46 167.256 251.229C171.67 249.998 174.292 245.411 173.111 240.983L172.976 240.475Z" fill="#3D3D3D"/><path d="M166.092 254.278C167.351 256.095 166.901 258.61 165.087 259.896C163.273 261.182 160.781 260.751 159.522 258.934C158.263 257.117 158.49 250.671 158.627 250.574C158.764 250.477 164.833 252.461 166.092 254.278Z" fill="#EE9583"/><path d="M157.959 244.624C156.722 239.983 151.969 237.267 147.342 238.557C142.716 239.847 139.968 244.655 141.206 249.295L141.348 249.828C142.585 254.469 147.338 257.185 151.965 255.895C156.591 254.605 159.338 249.797 158.101 245.157L157.959 244.624Z" fill="#3D3D3D"/><path d="M132.926 255.335L157.282 260.174L153.56 278.573L129.203 273.735L132.926 255.335Z" fill="#FFC6B7"/><path d="M118.416 231.257C104.976 233.646 97.3756 248.395 102.179 261.143C102.554 262.138 102.929 263.149 103.301 264.171L108.549 263.35C117.733 261.912 124.012 253.301 122.575 244.117L120.503 230.886L118.416 231.257Z" fill="#FFB67A"/><path d="M103.591 271.496C107.526 270.797 110.179 267.014 109.516 263.047C108.854 259.081 105.127 256.432 101.192 257.132C97.2567 257.831 94.6039 261.614 95.2665 265.58C95.9291 269.547 99.6561 272.195 103.591 271.496Z" fill="#FFC6B7"/><path fill-rule="evenodd" clip-rule="evenodd" d="M154.909 246.975C155.726 247.112 156.278 247.886 156.141 248.703C155.909 250.092 155.256 251.667 153.534 252.803C152.842 253.259 151.911 253.068 151.455 252.376C150.999 251.684 151.19 250.754 151.882 250.297C152.721 249.744 153.045 249.024 153.181 248.207C153.318 247.39 154.092 246.838 154.909 246.975Z" fill="white"/><path fill-rule="evenodd" clip-rule="evenodd" d="M169.866 242.707C170.684 242.844 171.235 243.618 171.098 244.435C170.865 245.825 170.213 247.4 168.491 248.535C167.799 248.991 166.868 248.8 166.412 248.108C165.956 247.416 166.147 246.486 166.839 246.03C167.678 245.476 168.002 244.756 168.139 243.939C168.275 243.122 169.049 242.57 169.866 242.707Z" fill="white"/><path d="M142.011 247.469C144.185 247.686 146.123 246.099 146.34 243.925C146.556 241.751 144.97 239.813 142.796 239.596C140.622 239.38 138.684 240.966 138.467 243.14C138.25 245.314 139.837 247.252 142.011 247.469Z" fill="white"/><path d="M156.752 241.923C157.035 239.189 158.658 236.712 161.112 235.385C162.523 236.103 163.42 237.634 163.254 239.304C163.037 241.478 161.099 243.064 158.925 242.847C158.091 242.764 157.344 242.428 156.752 241.923Z" fill="white"/><path fill-rule="evenodd" clip-rule="evenodd" d="M57.2254 172.65C57.3147 172.994 57.1084 173.345 56.7646 173.434L23.7465 182.009C23.4026 182.099 23.0515 181.892 22.9622 181.548C22.8729 181.205 23.0793 180.853 23.4231 180.764L56.4412 172.189C56.785 172.1 57.1361 172.306 57.2254 172.65Z" fill="#E0E0E0"/><path fill-rule="evenodd" clip-rule="evenodd" d="M44.3615 178.868C44.4508 179.211 44.2445 179.562 43.9007 179.652L19.1371 186.083C18.7933 186.173 18.4421 185.966 18.3528 185.622C18.2635 185.279 18.4699 184.927 18.8137 184.838L43.5773 178.407C43.9211 178.317 44.2722 178.524 44.3615 178.868Z" fill="#E0E0E0"/><path d="M185.471 181.466C195.799 161.056 220.718 152.884 241.127 163.213C261.536 173.542 269.708 198.46 259.38 218.869C249.051 239.279 224.133 247.451 203.723 237.122C183.314 226.793 175.142 201.875 185.471 181.466Z" fill="#84D8FF"/><path d="M264.418 221.42C276.114 198.308 266.933 170.108 243.917 158.297L243.676 158.175C241.821 157.236 241.078 154.971 242.017 153.115C242.956 151.26 245.221 150.517 247.076 151.456L247.413 151.626C274.07 165.343 284.695 198.029 271.137 224.82C263.421 240.066 249.529 250.132 234.042 253.514V262.602H240.876C242.763 262.602 244.293 264.132 244.293 266.019C244.293 267.907 242.763 269.437 240.876 269.437H216.957C215.069 269.437 213.539 267.907 213.539 266.019C213.539 264.132 215.069 262.602 216.957 262.602H223.791V254.757C215.165 254.98 206.363 253.157 198.109 249.049L197.772 248.881C195.917 247.942 195.174 245.676 196.113 243.821C197.052 241.966 199.317 241.223 201.172 242.162C224.365 253.899 252.681 244.612 264.418 221.42Z" fill="#FF9600"/><path d="M225.498 241.477C218.222 242.025 210.708 240.657 203.722 237.122C200.365 235.423 197.339 233.329 194.672 230.925C194.394 228.92 194.705 226.813 195.694 224.873C198.264 219.828 204.437 217.822 209.482 220.393L221.66 226.598C226.705 229.168 228.711 235.341 226.14 240.386C225.946 240.767 225.731 241.131 225.498 241.477Z" fill="#58CC02"/><path d="M263.161 192.678C264.749 201.283 263.635 210.459 259.379 218.869C256.836 223.894 253.409 228.176 249.383 231.624L245.835 229.817C235.746 224.676 231.735 212.33 236.875 202.241C241.799 192.578 253.332 188.49 263.161 192.678Z" fill="#58CC02"/><path d="M232.178 159.906C237.977 162.94 240.266 170.085 237.288 175.931C234.289 181.816 227.087 184.156 221.202 181.158L220.804 180.955C220.654 183.943 219.886 186.949 218.439 189.788C212.947 200.567 199.756 204.853 188.977 199.361C185.989 197.839 183.5 195.725 181.58 193.235C182.26 189.237 183.543 185.273 185.47 181.466C194.326 163.966 213.909 155.463 232.178 159.906Z" fill="#58CC02"/><path fill-rule="evenodd" clip-rule="evenodd" d="M109.463 110.541C110.265 110.295 111.114 110.745 111.36 111.546C112.303 114.614 115.084 116.867 117.284 117.264C118.324 117.452 119.013 117.203 119.436 116.718C119.909 116.175 120.376 114.976 120.114 112.593C120.023 111.759 120.624 111.01 121.457 110.918C122.291 110.826 123.041 111.428 123.132 112.261C123.437 115.035 122.997 117.254 121.724 118.714C120.4 120.231 118.5 120.569 116.745 120.252C113.353 119.64 109.711 116.518 108.458 112.438C108.212 111.636 108.662 110.787 109.463 110.541Z" fill="#9E4D31"/><path d="M115.89 132.194C119.84 131.546 122.517 127.817 121.868 123.866C121.219 119.916 117.491 117.239 113.54 117.888C109.59 118.537 106.913 122.266 107.562 126.216C108.211 130.167 111.939 132.843 115.89 132.194Z" fill="#DA8E74"/><path fill-rule="evenodd" clip-rule="evenodd" d="M87.3801 110.349C88.1758 110.085 89.035 110.516 89.2992 111.312C90.3081 114.351 93.3019 116.661 95.7563 117.08C96.9387 117.281 97.7402 117.014 98.215 116.506C98.7157 115.971 99.2063 114.8 98.9216 112.439C98.8212 111.606 99.4146 110.85 100.247 110.75C101.079 110.649 101.836 111.243 101.936 112.075C102.273 114.874 101.801 117.118 100.432 118.581C99.0378 120.071 97.0642 120.383 95.2453 120.073C91.6971 119.467 87.7836 116.383 86.4176 112.269C86.1534 111.473 86.5843 110.614 87.3801 110.349Z" fill="#9E4D31"/><path d="M28.1565 159.513C41.517 154.692 50.4807 141.323 49.1267 126.518C48.3373 117.886 44.1874 110.371 38.0866 105.145C26.0374 120.145 21.9515 140.602 28.1565 159.513Z" fill="#3D3D3D"/><path d="M62.0103 87.5413L64.7423 108.309C66.4762 121.491 57.196 133.583 44.0142 135.317C37.4703 136.177 31.195 134.324 26.3223 130.626C29.6007 113.507 40.5286 98.0515 57.3168 89.6415C58.8646 88.8661 60.4305 88.1665 62.0103 87.5413Z" fill="#3D3D3D"/><path d="M60.8328 90.6658L64.0878 81.6138L38.9094 82.2599L18.0273 122.789L21.0555 144.662L29.7406 149.537L30.4166 138.712L30.5856 128.579L44.2312 125.745L58.4181 114.066L60.8328 90.6658Z" fill="#3D3D3D"/><path fill-rule="evenodd" clip-rule="evenodd" d="M13.5724 156.219L9.59584 152.142C8.50092 151.019 8.52338 149.222 9.64601 148.127L44.6106 114.025C44.7513 113.888 44.9233 113.787 45.1117 113.731L55.4319 110.666C55.7527 110.57 56.09 110.753 56.1853 111.074C56.2202 111.192 56.2186 111.317 56.1808 111.434L52.8588 121.674C52.7981 121.861 52.6929 122.03 52.5522 122.168L17.5876 156.269C16.465 157.364 14.6673 157.342 13.5724 156.219Z" fill="#FFD300"/><path fill-rule="evenodd" clip-rule="evenodd" d="M13.5733 156.218L9.59676 152.141C8.50184 151.019 8.5243 149.221 9.64693 148.126L15.6185 142.302L23.5601 150.445L17.5885 156.269C16.4659 157.363 14.6682 157.341 13.5733 156.218Z" fill="#F5A4A4"/><path fill-rule="evenodd" clip-rule="evenodd" d="M13.5721 156.218L9.59555 152.141C9.09079 151.623 8.8235 150.963 8.79199 150.293L8.91195 150.176C9.63169 149.474 10.7842 149.489 11.4862 150.209L15.5512 154.376C16.2532 155.096 16.2388 156.249 15.519 156.951L15.3994 157.068C14.731 157.019 14.0768 156.736 13.5721 156.218Z" fill="#F39393"/><path fill-rule="evenodd" clip-rule="evenodd" d="M20.5198 152.79L13.1963 145.281C12.7799 144.855 12.8661 144.095 13.3888 143.585C13.9115 143.076 14.6728 143.008 15.0891 143.435L22.4127 150.944C22.829 151.371 22.7428 152.13 22.2201 152.64C21.6974 153.15 20.9362 153.217 20.5198 152.79Z" fill="#C4C4C4"/><path fill-rule="evenodd" clip-rule="evenodd" d="M55.1408 114.641L52.1992 111.625L55.4327 110.665C55.7535 110.569 56.0908 110.752 56.1861 111.073C56.221 111.19 56.2194 111.316 56.1816 111.432L55.1408 114.641Z" fill="#606060"/><path fill-rule="evenodd" clip-rule="evenodd" d="M52.7336 121.943L44.8398 113.849C44.9251 113.799 45.0166 113.759 45.1123 113.73L52.9188 111.412L55.3723 113.927L52.8593 121.673C52.8285 121.768 52.7862 121.859 52.7336 121.943Z" fill="#FFD8B4"/><path d="M25.2425 140.858C24.9609 140.569 24.9564 140.113 25.225 139.819L25.2559 139.787L43.6938 121.804C43.9933 121.512 44.4728 121.518 44.7649 121.817C45.0465 122.106 45.051 122.562 44.7825 122.857L44.7515 122.888L26.3136 140.871C26.0141 141.163 25.5346 141.157 25.2425 140.858Z" fill="#FFC000"/><path fill-rule="evenodd" clip-rule="evenodd" d="M23.8704 149.522L16.5468 142.013C16.1304 141.586 16.2167 140.827 16.7394 140.317C17.2621 139.807 18.0233 139.74 18.4396 140.167L25.7632 147.676C26.1795 148.103 26.0933 148.862 25.5706 149.372C25.0479 149.882 24.2867 149.949 23.8704 149.522Z" fill="#C4C4C4"/><path fill-rule="evenodd" clip-rule="evenodd" d="M22.1956 151.155L14.872 143.646C14.4556 143.22 14.5419 142.46 15.0646 141.95C15.5873 141.441 16.3485 141.373 16.7648 141.8L24.0884 149.309C24.5047 149.736 24.4185 150.495 23.8958 151.005C23.3731 151.515 22.6119 151.582 22.1956 151.155Z" fill="#C4C4C4"/><path d="M14.8168 146.504C14.5247 146.205 14.5307 145.725 14.8301 145.433C15.1189 145.152 15.5751 145.147 15.8692 145.416L15.9012 145.447L17.1685 146.746C17.4606 147.045 17.4546 147.525 17.1552 147.817C16.8664 148.099 16.4102 148.103 16.1161 147.835L16.0841 147.804L14.8168 146.504Z" fill="#DFDFDF"/><path d="M16.4925 144.869C16.2005 144.57 16.2065 144.09 16.5059 143.798C16.7947 143.517 17.2509 143.512 17.545 143.781L17.577 143.812L18.8443 145.111C19.1364 145.41 19.1304 145.89 18.8309 146.182C18.5422 146.464 18.086 146.468 17.7919 146.2L17.7599 146.169L16.4925 144.869Z" fill="#DFDFDF"/><path d="M18.1673 143.236C17.8753 142.937 17.8813 142.457 18.1807 142.165C18.4695 141.883 18.9257 141.879 19.2198 142.147L19.2518 142.178L20.5191 143.478C20.8112 143.777 20.8052 144.257 20.5057 144.549C20.217 144.831 19.7608 144.835 19.4667 144.566L19.4347 144.535L18.1673 143.236Z" fill="#DFDFDF"/><path d="M39.1407 145.987C44.0261 146.756 48.6095 143.418 49.378 138.533C50.1465 133.647 46.809 129.064 41.9236 128.295C37.0381 127.527 32.4547 130.864 31.6862 135.75C30.9178 140.635 34.2552 145.219 39.1407 145.987Z" fill="#DA8E74"/><path fill-rule="evenodd" clip-rule="evenodd" d="M255.383 120.344L264.739 103.672L283.062 113.954L270.805 135.796C266.941 142.682 258.35 145.319 251.288 141.788L234.576 133.432L243.973 114.639L255.383 120.344Z" fill="#1CB0F6"/><path d="M220.621 120.927C220.621 113.822 226.381 108.062 233.485 108.062C240.59 108.062 246.349 113.822 246.349 120.927C246.349 128.031 240.59 133.791 233.485 133.791C226.381 133.791 220.621 128.031 220.621 120.927Z" fill="#E18E70"/><path fill-rule="evenodd" clip-rule="evenodd" d="M220.3 138.615C217.635 138.615 215.476 136.455 215.476 133.791C215.476 126.684 217.401 119.224 222.935 113.828C224.843 111.968 227.897 112.007 229.757 113.914C231.617 115.822 231.578 118.876 229.671 120.736C226.629 123.701 225.124 128.248 225.124 133.791C225.124 136.455 222.964 138.615 220.3 138.615Z" fill="#E18E70"/><path d="M342.575 171.639C357.62 158.752 359.405 136.15 346.562 121.157C333.718 106.165 311.111 104.458 296.066 117.346C281.021 130.234 279.236 152.835 292.079 167.828C304.923 182.821 327.53 184.527 342.575 171.639Z" fill="#FFB7E3"/><path d="M335.603 173.348C333.611 172.067 333.036 169.413 334.317 167.422L349.518 143.803C350.799 141.812 353.453 141.237 355.444 142.518L389.519 164.448C397.485 169.575 399.787 180.188 394.66 188.154L393.384 190.137C388.258 198.103 377.644 200.405 369.678 195.278L335.603 173.348Z" fill="#FFB7E3"/><path d="M400.463 196.842C395.553 204.943 385.006 207.53 376.905 202.62L374.888 201.398C366.786 196.488 364.199 185.94 369.109 177.839L390.112 143.185C391.34 141.16 393.977 140.513 396.002 141.74L420.022 156.298C422.047 157.526 422.694 160.162 421.466 162.188L400.463 196.842Z" fill="#FFB7E3"/><path d="M290.869 195.959C292.714 174.09 311.002 157.28 332.948 157.28C352.539 157.28 369.557 170.755 374.05 189.824L389.989 257.466C390.321 258.877 389.252 260.228 387.803 260.228H287.89C286.575 260.228 285.541 259.103 285.652 257.793L290.869 195.959Z" fill="#A570FF"/><path d="M323.775 220.491L352.292 225.648L394.622 255.385C400.846 259.757 397.752 269.542 390.146 269.542H286.125C278.829 269.542 275.54 260.409 281.161 255.758L323.775 220.491Z" fill="#593F86"/><path d="M292.66 267.793C292.66 267.319 293.044 266.935 293.518 266.935H362.556C363.029 266.935 363.413 267.319 363.413 267.793V268.865C363.413 269.339 363.029 269.723 362.556 269.723H293.518C293.044 269.723 292.66 269.339 292.66 268.865V267.793Z" fill="white"/><path d="M297.164 188.007C301.75 170.237 318.846 158.658 337.049 160.995C355.315 163.339 368.954 178.955 368.82 197.371L368.608 226.323C368.531 236.878 359.243 244.99 348.774 243.646L304.699 237.989C294.198 236.641 287.257 226.392 289.902 216.141L297.164 188.007Z" fill="#FFC6B7"/><path d="M359.18 202.966C360.052 198.502 364.378 195.59 368.842 196.463L371.781 197.037C376.246 197.909 379.157 202.235 378.285 206.699C377.413 211.163 373.087 214.075 368.622 213.203L365.683 212.628C361.219 211.756 358.307 207.43 359.18 202.966Z" fill="#FFC6B7"/><path d="M370.961 197.118C370.775 197.069 370.589 197.018 370.403 196.964L342.326 188.943C328.401 184.964 320.259 170.591 323.916 156.651C327.813 156.218 331.825 156.322 335.856 157.021C355.642 160.455 370.192 177.258 370.961 197.118Z" fill="#A570FF"/><path d="M334.982 202.653C335.73 196.496 341.314 192.218 347.454 193.097L356.754 194.429C357.368 194.517 357.805 195.087 357.731 195.703L356.349 207.069C355.601 213.226 350.017 217.505 343.877 216.625L339.023 215.93C335.954 215.491 333.768 212.639 334.142 209.56L334.982 202.653Z" fill="white"/><path d="M355.89 213.738C347.8 211.311 337.003 215.899 332.616 218.497L357.178 227.735C360.119 224.081 363.98 216.166 355.89 213.738Z" fill="#FFC6B7"/><path fill-rule="evenodd" clip-rule="evenodd" d="M327.414 208.219C328.056 207.697 328.153 206.754 327.631 206.113C324.837 202.679 319.635 199.563 312.043 199.349C311.217 199.326 310.528 199.978 310.505 200.804C310.481 201.631 311.133 202.32 311.959 202.343C318.743 202.534 323.103 205.293 325.308 208.003C325.83 208.644 326.773 208.741 327.414 208.219Z" fill="#C9705E"/><path d="M331.517 216.481C330.372 218.599 327.748 219.399 325.656 218.268C323.565 217.137 322.798 214.503 323.944 212.385C325.089 210.267 331.375 207.317 331.533 207.402C331.691 207.487 332.663 214.363 331.517 216.481Z" fill="#EE9583"/><path d="M339.034 200.351C339.342 198.017 341.484 196.374 343.819 196.682C346.154 196.99 347.797 199.133 347.489 201.467L347.304 202.871C346.995 205.205 344.853 206.848 342.518 206.54C340.183 206.232 338.541 204.09 338.849 201.755L339.034 200.351Z" fill="#3D3D3D"/><path d="M357.07 201.163C353.27 200.188 348.892 199.292 345.157 199.127C339.22 198.865 336.501 199.543 335.723 199.792C337.577 195.232 342.322 192.361 347.456 193.096L356.757 194.428C357.371 194.516 357.808 195.087 357.733 195.703L357.07 201.163Z" fill="#A570FF"/><path d="M290.463 203.339C290.914 198.315 292.375 193.433 294.759 188.987L306.365 167.347L315.779 161.542L329.421 160.645C329.421 160.645 323.282 171.837 322.552 179.702C319.176 216.065 322.348 236.101 323.729 242.584C323.968 243.706 323.011 244.775 321.874 244.621L287.185 239.929L290.463 203.339Z" fill="#A570FF"/><path d="M292.715 229.354L286.842 235.322L303.518 251.733L309.391 245.765L292.715 229.354Z" fill="#A7E2FF"/><path d="M297.27 236.329C297.07 236.132 296.747 236.134 296.55 236.335L293.883 239.045C293.685 239.245 293.688 239.568 293.888 239.765L310.926 256.533C311.126 256.73 311.449 256.727 311.646 256.527L314.313 253.816C314.511 253.616 314.508 253.294 314.308 253.096L297.27 236.329Z" fill="#0B6189"/><path fill-rule="evenodd" clip-rule="evenodd" d="M316.445 253.635C316.271 253.355 315.881 253.311 315.649 253.546L311.399 257.865C311.167 258.101 311.218 258.492 311.504 258.661L319.63 263.454C319.831 263.573 320.087 263.539 320.251 263.373L321.338 262.269C321.503 262.101 321.532 261.843 321.408 261.643L316.445 253.635Z" fill="#A7E2FF"/><path fill-rule="evenodd" clip-rule="evenodd" d="M313.739 251.649C313.56 251.38 313.178 251.344 312.952 251.574L311.773 252.771C311.583 252.965 311.578 253.273 311.761 253.473L318.914 261.262C319.338 261.725 320.061 261.159 319.713 260.636L313.739 251.649Z" fill="#D7F2FF"/><path d="M306.485 242.193C306.184 241.897 305.7 241.901 305.404 242.202L299.89 247.805C299.594 248.105 299.598 248.589 299.899 248.885L310.048 258.873C310.349 259.169 310.832 259.165 311.128 258.865L316.642 253.262C316.938 252.961 316.934 252.477 316.634 252.182L306.485 242.193Z" fill="#1899D6"/><path d="M305.963 244.173C305.763 243.975 305.44 243.978 305.243 244.178L304.178 245.261C303.98 245.461 303.983 245.784 304.183 245.981L312.883 254.543C313.083 254.74 313.406 254.738 313.603 254.537L314.668 253.454C314.866 253.254 314.863 252.932 314.663 252.734L305.963 244.173Z" fill="#1CB0F6"/><path d="M290.674 250.059C290.44 244.088 295.091 239.057 301.062 238.823C307.033 238.589 312.063 243.24 312.298 249.211C312.532 255.182 307.881 260.212 301.91 260.446C295.939 260.68 290.909 256.03 290.674 250.059Z" fill="#FFC6B7"/><path fill-rule="evenodd" clip-rule="evenodd" d="M300.635 242.62C300.558 240.677 302.072 239.04 304.015 238.963C307.091 238.843 309.525 239.013 311.926 240.398C313.026 241.033 313.988 241.847 314.919 242.716C315.551 243.306 316.266 244.016 317.053 244.798C317.399 245.141 317.759 245.498 318.131 245.865C319.517 247.229 319.534 249.459 318.17 250.845C316.806 252.23 314.576 252.248 313.19 250.883C312.748 250.447 312.352 250.054 311.991 249.696C311.255 248.965 310.664 248.377 310.114 247.864C309.315 247.119 308.813 246.733 308.406 246.498C307.791 246.143 307.037 245.893 304.291 246.001C302.348 246.077 300.711 244.563 300.635 242.62Z" fill="#FFC6B7"/><path d="M352.763 238.695C356.253 233.922 362.951 232.881 367.724 236.371L378.685 244.385C383.458 247.874 384.499 254.573 381.009 259.346C377.52 264.119 370.821 265.159 366.048 261.669L355.087 253.655C350.314 250.166 349.274 243.468 352.763 238.695Z" fill="#593F86"/><path d="M344.505 267.792C344.505 261.342 349.734 256.113 356.184 256.113H365.722V269.544H344.505V267.792Z" fill="#FFC6B7"/><path d="M285.574 224.819C284.625 223.886 283.099 223.898 282.165 224.847C281.231 225.796 281.243 227.322 282.192 228.256L287.094 233.08C288.043 234.014 289.569 234.001 290.503 233.052C291.437 232.104 291.425 230.577 290.476 229.643L285.574 224.819Z" fill="#1487BD"/><path d="M289.81 225.782C289.509 225.486 289.025 225.49 288.729 225.79L283.216 231.393C282.92 231.694 282.923 232.178 283.224 232.474L288.479 237.645C288.78 237.941 289.264 237.937 289.56 237.637L295.074 232.034C295.369 231.733 295.366 231.25 295.065 230.954L289.81 225.782Z" fill="#1899D6"/><path fill-rule="evenodd" clip-rule="evenodd" d="M283.174 233.693C282.621 233.042 281.629 233.005 281.029 233.614C280.466 234.187 280.473 235.107 281.046 235.671L288.51 243.017C288.914 243.414 289.568 243.391 289.942 242.965C290.265 242.598 290.269 242.049 289.953 241.676L283.174 233.693Z" fill="#1899D6"/><path d="M285.366 231.021C284.865 230.529 284.06 230.535 283.567 231.036L280.901 233.744C280.409 234.245 280.415 235.05 280.916 235.543C281.416 236.035 282.221 236.029 282.714 235.528L285.38 232.82C285.872 232.319 285.866 231.514 285.366 231.021Z" fill="#1899D6"/><path d="M289.107 227.583C288.906 227.386 288.584 227.388 288.387 227.589L287.321 228.671C287.124 228.872 287.126 229.194 287.327 229.392L291.495 233.494C291.695 233.691 292.018 233.688 292.215 233.488L293.281 232.405C293.478 232.205 293.475 231.882 293.275 231.685L289.107 227.583Z" fill="#1CB0F6"/><path fill-rule="evenodd" clip-rule="evenodd" d="M347.149 218.79C347.971 218.885 348.753 219.216 349.498 219.753C350.168 220.237 350.32 221.173 349.837 221.844C349.353 222.514 348.417 222.666 347.746 222.182C347.339 221.889 347.032 221.791 346.808 221.766C346.584 221.74 346.338 221.773 346.033 221.899C345.342 222.184 344.6 222.817 343.576 223.753C343.519 223.805 343.461 223.858 343.403 223.911C342.497 224.741 341.403 225.744 340.157 226.439C338.769 227.213 337.114 227.657 335.187 227.18C334.384 226.981 333.894 226.17 334.093 225.367C334.292 224.564 335.104 224.074 335.906 224.273C336.926 224.525 337.802 224.324 338.698 223.824C339.628 223.304 340.487 222.52 341.468 221.622C341.497 221.596 341.526 221.569 341.555 221.543L341.561 221.538C342.491 220.688 343.623 219.653 344.892 219.13C345.569 218.851 346.327 218.696 347.149 218.79Z" fill="#EE9583"/><path d="M277.652 112.489L312.773 109.329C318.108 108.849 322.978 112.382 324.178 117.603L315.401 131.543C308.103 143.136 290.83 141.917 285.232 129.415L277.652 112.489Z" fill="#FF86D0"/><path fill-rule="evenodd" clip-rule="evenodd" d="M128.139 95.661C129.259 98.1763 128.128 101.124 125.613 102.244C123.244 103.299 120.771 104.114 117.927 104.052C115.114 103.99 112.484 103.083 109.73 101.734C107.257 100.523 106.235 97.536 107.446 95.0633C108.657 92.5905 111.644 91.568 114.117 92.7794C116.265 93.8318 117.391 94.066 118.145 94.0826C118.869 94.0984 119.775 93.9286 121.556 93.1354C124.071 92.015 127.018 93.1458 128.139 95.661Z" fill="#3D3D3D"/><path d="M267.788 105.262C265.205 98.6478 269.65 91.3953 276.717 90.6952L301.993 88.1909C306.332 87.7609 310.499 90.0024 312.533 93.8599L323.749 115.138L305.244 130.854C295.143 139.433 279.599 135.51 274.778 123.165L267.788 105.262Z" fill="#1CB0F6"/><path fill-rule="evenodd" clip-rule="evenodd" d="M97.7419 90.5677C98.1382 93.2926 96.2505 95.8228 93.5257 96.2191C90.3635 96.679 88.7743 97.4068 86.6801 99.3832C84.6775 101.273 81.5221 101.182 79.6322 99.1791C77.7423 97.1766 77.8337 94.0211 79.8363 92.1313C83.6029 88.5766 87.1608 87.0685 92.0905 86.3515C94.8154 85.9552 97.3456 87.8429 97.7419 90.5677Z" fill="#3D3D3D"/><path d="M253.854 90.1913L286.19 70.4799C291.202 67.4247 297.739 68.9684 300.855 73.9428L307.454 84.4783L290.565 106.914C283.059 116.886 267.755 115.757 261.793 104.792L253.854 90.1913Z" fill="#FFB7E3"/><path d="M300.23 84.4927C295.296 83.2597 296.633 73.774 301.711 74.0635C326.275 75.4637 340.602 55.6245 345.873 46.4702C347.143 44.2649 350.165 43.5823 352.134 45.1942L370.791 60.4656C372.345 61.7373 372.64 63.9615 371.303 65.4588C364.3 73.2991 340.855 94.6437 300.23 84.4927Z" fill="#FFB7E3"/><path d="M212.105 53.6723C212.105 24.0299 236.248 1.01539e-06 265.89 0C295.533 -1.01539e-06 319.675 24.0299 319.675 53.6723C319.675 83.3147 295.533 107.345 265.89 107.345C236.248 107.345 212.105 83.3148 212.105 53.6723Z" fill="#FFB7E3"/><path d="M271.765 107.027C269.835 107.237 267.875 107.345 265.89 107.345C264.072 107.345 262.275 107.254 260.502 107.078C270.281 103.177 277.994 97.882 283.841 91.3869C290.876 83.5716 294.972 74.2979 296.683 64.1686C296.904 62.8572 298.147 61.9736 299.458 62.1952C300.77 62.4167 301.653 63.6594 301.432 64.9709C299.577 75.9527 295.11 86.0675 287.42 94.6094C283.122 99.3838 277.92 103.544 271.765 107.027Z" fill="#FF9BD8"/><path fill-rule="evenodd" clip-rule="evenodd" d="M249.388 21.3403C270.992 15.1134 293.554 27.5791 299.781 49.1832C306.008 70.7873 293.542 93.3487 271.938 99.5756C250.334 105.803 227.772 93.3368 221.545 71.7327C215.318 50.1286 227.784 27.5672 249.388 21.3403Z" fill="#E18E70"/><path d="M257.533 59.7539C255.615 64.5423 257.943 69.976 262.731 71.8904C265.888 73.1524 269.326 72.5701 271.852 70.6551L271.851 70.6992L272.051 70.4992C272.564 70.089 273.039 69.6195 273.461 69.0977L274.708 67.8802C275.926 66.7024 277.059 65.6434 278.105 64.7027C278.678 64.3029 279.197 63.8417 279.658 63.3323C279.838 63.1616 279.976 62.9988 280.071 62.8433C281.882 60.5447 282.589 57.4332 281.698 54.4144C280.238 49.4692 275.044 46.6457 270.096 48.1078C264.218 49.8454 259.856 53.9558 257.533 59.7539Z" fill="white"/><path fill-rule="evenodd" clip-rule="evenodd" d="M264.923 56.8647C268.209 55.9175 271.641 57.8137 272.588 61.0999L273.414 63.9649C274.361 67.2511 272.465 70.683 269.179 71.6302C265.892 72.5774 262.46 70.6812 261.513 67.395L260.687 64.53C260.654 64.4139 260.624 64.2976 260.598 64.1812C260.721 64.1615 260.843 64.1328 260.965 64.0976C262.955 63.5242 264.102 61.4419 263.527 59.4468C263.368 58.8953 263.094 58.4081 262.739 58.004C263.363 57.4954 264.099 57.102 264.923 56.8647Z" fill="#3D3D3D"/><path fill-rule="evenodd" clip-rule="evenodd" d="M249.388 21.3403C257.462 19.0133 265.669 19.2967 273.107 21.6918L272.728 22.3914L272.337 23.1105C265.967 34.7646 254.361 53.4864 226.403 60.5225C224.435 61.0178 221.852 61.0462 219.945 60.8293C219.772 42.9991 231.419 26.5195 249.388 21.3403Z" fill="#3D3D3D"/><path d="M252.5 61.2046C256.672 64.2377 257.594 70.0765 254.559 74.2459C252.558 76.9944 249.337 78.3314 246.18 78.0547L246.204 78.0915L245.929 78.0282C245.275 77.9544 244.624 77.8093 243.989 77.5925L242.285 77.2254C240.627 76.8767 239.105 76.5828 237.718 76.3433C237.02 76.3097 236.335 76.1958 235.673 76.0099C235.431 75.9611 235.228 75.8963 235.064 75.8154C232.307 74.8336 230.053 72.5754 229.2 69.5455C227.804 64.5819 230.699 59.427 235.666 58.0315C241.567 56.3739 247.448 57.532 252.5 61.2046Z" fill="white"/><path fill-rule="evenodd" clip-rule="evenodd" d="M244.197 62.7082C247.39 61.7881 250.72 63.5512 251.775 66.6652L251.863 66.9434L252.688 69.8084C253.636 73.0947 251.739 76.5265 248.453 77.4737C245.261 78.3939 241.931 76.6308 240.875 73.5167L240.788 73.2385L239.962 70.3735C239.877 70.0778 239.815 69.781 239.774 69.4848C240.426 69.672 241.135 69.6832 241.833 69.482C243.822 68.9086 244.969 66.8264 244.394 64.8312C244.188 64.1181 243.791 63.5126 243.274 63.0552C243.567 62.9176 243.875 62.801 244.197 62.7082Z" fill="#3D3D3D"/><path d="M231.052 83.3879L228.383 76.7979L228.611 76.7091L228.768 76.6504L228.933 76.5901L229.156 76.5109L229.393 76.4292L229.516 76.3875L229.839 76.281L229.906 76.2593C231.039 75.894 232.314 75.5447 233.711 75.2382C237.702 74.3625 241.906 73.9952 246.155 74.369C252.31 74.9106 258.019 76.972 262.962 80.8642L263.13 80.9976L258.692 86.5528C254.872 83.5007 250.431 81.8827 245.532 81.4516C242.063 81.1464 238.566 81.4521 235.234 82.183C234.141 82.4229 233.144 82.6923 232.262 82.9705L231.984 83.0598L231.786 83.1253L231.601 83.1883L231.429 83.2486L231.148 83.3512L231.052 83.3879Z" fill="#E18E70"/><path fill-rule="evenodd" clip-rule="evenodd" d="M256.406 81.3825C258.552 81.5556 260.431 79.9771 260.602 77.857C260.773 75.7368 257.291 70.4092 257.291 70.4092C257.291 70.4092 253 75.1101 252.829 77.2303C252.658 79.3504 254.259 81.2094 256.406 81.3825Z" fill="#9E4D31"/><path d="M292.631 68.2976L290.895 58.5579L290.729 58.5889L290.57 58.6207L290.382 58.6602L290.146 58.7118C290.065 58.7298 289.982 58.7487 289.897 58.7685L289.635 58.8306L289.291 58.9158L289.22 58.9339C288.024 59.2383 286.716 59.6341 285.327 60.1337C281.358 61.5614 277.48 63.5511 273.959 66.222C268.829 70.1136 264.924 75.1153 262.716 81.3141L262.644 81.5189L271.985 84.7766C273.5 80.4336 276.228 76.9192 279.939 74.1039C282.591 72.0922 285.591 70.5527 288.676 69.4433C289.688 69.0791 290.636 68.7886 291.491 68.5651L291.761 68.4961L291.951 68.4491L292.13 68.4067L292.296 68.3687L292.518 68.3207L292.631 68.2976Z" fill="#E18E70"/><path d="M262.199 85.1976C261.594 84.5472 261.945 83.485 262.819 83.3233C266.524 82.6377 269.641 80.1436 271.123 76.6786L271.92 74.8142C272.356 73.7938 273.687 73.5919 274.356 74.4778C277.287 78.3626 283.141 87.3336 278.719 91.9964C275.03 95.8861 269.172 92.6904 265.52 88.7661L262.199 85.1976Z" fill="#881B1B"/><path d="M278.903 81.9937C280.48 85.5908 281.143 89.4404 278.719 91.996C277.44 93.3445 275.901 93.8414 274.283 93.7515C273.667 92.5897 273.318 91.2646 273.318 89.8581C273.318 86.2202 275.651 83.1273 278.903 81.9937Z" fill="#B12E2E"/><path d="M294.046 85.5252C292.08 80.0662 294.912 74.0472 300.371 72.0813C305.83 70.1154 311.849 72.9471 313.815 78.4061L339.397 149.443L319.628 156.562L294.046 85.5252Z" fill="#1CB0F6"/><path d="M351.393 154.711C350.832 154.432 350.274 154.167 349.72 153.916C349.351 152.307 348.166 150.929 346.479 150.392C343.753 149.525 341.295 149.043 338.813 149.11C337.056 149.157 335.454 149.475 333.903 149.955C330.303 149.739 326.726 149.941 323.074 150.385C322.762 150.423 322.461 150.49 322.173 150.583C322.002 150.577 321.83 150.581 321.657 150.593C318.8 150.8 316.1 151.764 314.021 152.732C311.917 153.712 310.134 154.845 309.036 155.68C306.916 157.294 306.505 160.32 308.118 162.441C309.731 164.561 312.758 164.972 314.878 163.359C315.42 162.946 316.61 162.17 318.094 161.478C319.603 160.776 321.107 160.306 322.353 160.216C322.617 160.197 322.874 160.157 323.123 160.098C323.304 160.146 323.49 160.184 323.68 160.211C326.212 160.574 327.904 161.072 329.421 161.894C330.964 162.73 332.632 164.068 334.852 166.532C336.635 168.512 339.686 168.671 341.665 166.887C343.195 165.509 343.638 163.374 342.937 161.562C344.299 162.054 345.682 162.647 347.1 163.351C349.486 164.537 352.381 163.563 353.567 161.177C354.752 158.792 353.779 155.896 351.393 154.711Z" fill="#DA8E74"/><path fill-rule="evenodd" clip-rule="evenodd" d="M407.586 139.361C407.654 136.526 410.008 134.283 412.843 134.352L436.654 134.927C439.489 134.996 441.732 137.35 441.663 140.185C441.595 143.02 439.241 145.263 436.406 145.194L412.595 144.619C409.76 144.55 407.517 142.196 407.586 139.361Z" fill="#FF86D0"/><path opacity="0.4" d="M131.705 79.1389C130.968 78.4023 130.968 77.208 131.705 76.4715L136.373 71.8034C137.109 71.0668 138.304 71.0668 139.04 71.8034L143.708 76.4715C144.445 77.208 144.445 78.4023 143.708 79.1389L139.04 83.8069C138.304 84.5435 137.109 84.5435 136.373 83.8069L131.705 79.1389Z" fill="#EBF9FF"/><path d="M208.063 48.3692L234.034 47.6334C235.413 47.6091 236.418 48.9377 236.018 50.2573C234.099 56.5974 228.234 61.0556 221.437 61.1753C214.64 61.2951 208.601 57.0467 206.429 50.7787C205.977 49.4741 206.684 48.3935 208.063 48.3692Z" fill="#3D3D3D"/><path fill-rule="evenodd" clip-rule="evenodd" d="M212.456 48.2839C221.338 47.8981 223.763 42.3235 226.692 38.1027C228.645 35.2887 232.235 36.28 237.462 41.0764L229.595 51.4148L215.094 52.7801C207.414 50.0399 206.534 48.5412 212.456 48.2839Z" fill="#3D3D3D"/><path opacity="0.5" fill-rule="evenodd" clip-rule="evenodd" d="M156.158 30.7518L159.653 42.0137L167.413 45.582C168.203 45.9452 168.549 46.8798 168.186 47.6695C168.029 48.0109 167.755 48.2849 167.413 48.4419L159.653 52.0102L156.158 63.2721C155.901 64.1022 155.019 64.5664 154.189 64.3087C153.693 64.155 153.306 63.7673 153.152 63.2721L149.657 52.0102L141.897 48.4419C141.107 48.0787 140.762 47.1441 141.125 46.3544C141.282 46.013 141.556 45.739 141.897 45.582L149.657 42.0137L153.152 30.7518C153.41 29.9217 154.292 29.4576 155.122 29.7152C155.617 29.8689 156.005 30.2566 156.158 30.7518Z" fill="#EBF9FF"/><path opacity="0.25" d="M167.405 62.5827C166.852 62.0302 166.852 61.1345 167.405 60.5821L171.072 56.9143C171.625 56.3619 172.52 56.3619 173.073 56.9143L176.741 60.5821C177.293 61.1345 177.293 62.0302 176.741 62.5827L173.073 66.2504C172.52 66.8028 171.625 66.8028 171.072 66.2504L167.405 62.5827Z" fill="#EBF9FF"/><rect width="434" height="15" transform="matrix(1 0 0 -1 0 299)" fill="#7E3E02"/><path d="M0 284H434V277C434 272.582 430.418 269 426 269H7.99999C3.58171 269 0 272.582 0 277V284Z" fill="#CD7900"/></svg>