<svg width="35" height="36" viewBox="0 0 35 36" fill="none" xmlns="http://www.w3.org/2000/svg"><mask id="path-1-outside-1_256_3612" maskUnits="userSpaceOnUse" x="-0.0810547" y="0.38131" width="35" height="35" fill="black"><rect fill="white" x="-0.0810547" y="0.38131" width="35" height="35"/><path fill-rule="evenodd" clip-rule="evenodd" d="M21.3968 5.1945C23.1921 3.47398 26.7385 3.13955 27.0979 3.52553C27.4573 3.91151 26.888 7.37975 25.0376 9.1044C23.1873 10.829 19.5931 11.1686 19.2769 10.829C18.9607 10.4895 19.6014 6.91501 21.3968 5.1945ZM17.4957 6.91626C18.0628 6.91626 18.5225 7.37687 18.5225 7.94506C18.5225 7.9721 18.5215 7.99912 18.5193 8.02608L18.1527 12.6767C20.7478 11.0059 24.1695 10.8419 26.9928 12.5407L27.0162 12.55L27.0183 12.5465L27.0218 12.5486C30.9835 14.9351 32.2644 20.0877 29.8826 24.0573L27.3679 28.2325C25.2999 31.6791 21.1505 33.1009 17.4997 31.8532C13.8488 33.1009 9.69942 31.6791 7.63142 28.2325L5.11676 24.0573C2.73497 20.0877 4.01581 14.9351 7.97758 12.5486L7.98106 12.5465L7.98316 12.55L8.00659 12.5407C10.8268 10.8437 14.2443 11.0056 16.8384 12.6714L16.4722 8.02608C16.4275 7.45965 16.8496 6.9642 17.4149 6.91945C17.4418 6.91733 17.4688 6.91626 17.4957 6.91626Z"/></mask><path fill-rule="evenodd" clip-rule="evenodd" d="M21.3968 5.1945C23.1921 3.47398 26.7385 3.13955 27.0979 3.52553C27.4573 3.91151 26.888 7.37975 25.0376 9.1044C23.1873 10.829 19.5931 11.1686 19.2769 10.829C18.9607 10.4895 19.6014 6.91501 21.3968 5.1945ZM17.4957 6.91626C18.0628 6.91626 18.5225 7.37687 18.5225 7.94506C18.5225 7.9721 18.5215 7.99912 18.5193 8.02608L18.1527 12.6767C20.7478 11.0059 24.1695 10.8419 26.9928 12.5407L27.0162 12.55L27.0183 12.5465L27.0218 12.5486C30.9835 14.9351 32.2644 20.0877 29.8826 24.0573L27.3679 28.2325C25.2999 31.6791 21.1505 33.1009 17.4997 31.8532C13.8488 33.1009 9.69942 31.6791 7.63142 28.2325L5.11676 24.0573C2.73497 20.0877 4.01581 14.9351 7.97758 12.5486L7.98106 12.5465L7.98316 12.55L8.00659 12.5407C10.8268 10.8437 14.2443 11.0056 16.8384 12.6714L16.4722 8.02608C16.4275 7.45965 16.8496 6.9642 17.4149 6.91945C17.4418 6.91733 17.4688 6.91626 17.4957 6.91626Z" fill="#EA2B2B"/><path d="M27.0979 3.52553L24.9024 5.56997L27.0979 3.52553ZM21.3968 5.1945L23.4725 7.36046L21.3968 5.1945ZM25.0376 9.1044L22.9922 6.90984L25.0376 9.1044ZM18.5193 8.02608L21.5101 8.26185V8.26185L18.5193 8.02608ZM18.1527 12.6767L15.162 12.4409L14.6862 18.4765L19.7767 15.1991L18.1527 12.6767ZM26.9928 12.5407L25.446 15.1112L25.6549 15.2369L25.8812 15.3272L26.9928 12.5407ZM27.0162 12.55L25.9046 15.3365L28.2767 16.2827L29.5895 14.0922L27.0162 12.55ZM27.0183 12.5465L28.5658 9.97649L25.9904 8.42573L24.445 11.0044L27.0183 12.5465ZM27.0218 12.5486L28.5697 9.97886L28.5693 9.97859L27.0218 12.5486ZM29.8826 24.0573L32.4525 25.6051L32.4551 25.6008L29.8826 24.0573ZM27.3679 28.2325L24.798 26.6847L24.7955 26.689L27.3679 28.2325ZM17.4997 31.8532L18.4699 29.0144L17.4997 28.6828L16.5295 29.0144L17.4997 31.8532ZM7.63142 28.2325L10.2039 26.689L10.2013 26.6847L7.63142 28.2325ZM5.11676 24.0573L2.54428 25.6008L2.54687 25.6051L5.11676 24.0573ZM7.97758 12.5486L6.43001 9.97862L6.42961 9.97886L7.97758 12.5486ZM7.98106 12.5465L10.5539 11.0036L9.00812 8.42618L6.43349 9.97652L7.98106 12.5465ZM7.98316 12.55L5.41037 14.093L6.72344 16.2825L9.09473 15.3365L7.98316 12.55ZM8.00659 12.5407L9.11816 15.3272L9.34451 15.2369L9.55332 15.1112L8.00659 12.5407ZM16.8384 12.6714L15.2174 15.1957L20.3042 18.4623L19.8291 12.4356L16.8384 12.6714ZM16.4722 8.02608L19.4629 7.7903V7.7903L16.4722 8.02608ZM17.4149 6.91945L17.1782 3.92881L17.1782 3.92881L17.4149 6.91945ZM29.2934 1.48109C28.8469 1.0016 28.3565 0.77481 28.1018 0.67364C27.8138 0.559272 27.5503 0.498728 27.3581 0.463905C26.973 0.394134 26.5945 0.378623 26.279 0.381661C25.6311 0.3879 24.8927 0.477313 24.1506 0.638094C22.7409 0.943492 20.7885 1.62223 19.321 3.02854L23.4725 7.36046C23.6112 7.22756 23.8567 7.05629 24.2314 6.88673C24.5983 6.72065 25.0144 6.59014 25.421 6.50206C25.8348 6.41242 26.1626 6.38306 26.3368 6.38138C26.4324 6.38046 26.4039 6.38871 26.2886 6.36781C26.2312 6.35742 26.0826 6.32759 25.8869 6.24988C25.7245 6.18538 25.3039 6.0012 24.9024 5.56997L29.2934 1.48109ZM27.0831 11.299C28.5639 9.91874 29.3732 8.04025 29.7772 6.65026C29.9885 5.92338 30.1283 5.1958 30.1787 4.55113C30.2032 4.23717 30.2134 3.85886 30.1696 3.46964C30.1477 3.2752 30.1049 3.00878 30.0103 2.71444C29.926 2.45255 29.7342 1.95447 29.2934 1.48109L24.9024 5.56997C24.5065 5.14483 24.3523 4.71908 24.2983 4.55124C24.2339 4.35096 24.214 4.20031 24.2073 4.14101C24.1939 4.02208 24.2041 3.99152 24.1969 4.08394C24.1838 4.25201 24.1331 4.57166 24.0156 4.97567C23.9004 5.37202 23.7413 5.77947 23.5475 6.14051C23.3503 6.50777 23.1539 6.7591 22.9922 6.90984L27.0831 11.299ZM17.0814 12.8735C17.5774 13.4061 18.1323 13.627 18.3656 13.7103C18.6525 13.8126 18.9121 13.8626 19.0939 13.8899C19.4618 13.9452 19.8256 13.9525 20.1308 13.9443C20.7598 13.9273 21.4875 13.8338 22.2284 13.6703C23.6347 13.36 25.5956 12.6854 27.0831 11.299L22.9922 6.90984C22.8365 7.05496 22.5709 7.23439 22.1774 7.41023C21.7919 7.58251 21.358 7.71806 20.9355 7.81126C20.507 7.90582 20.1613 7.94127 19.9696 7.94643C19.8645 7.94925 19.8811 7.94086 19.9848 7.95642C20.0344 7.96386 20.1825 7.98807 20.3811 8.0589C20.5262 8.11063 21.016 8.29441 21.4724 8.7846L17.0814 12.8735ZM19.321 3.02854C17.8836 4.4061 17.0815 6.29998 16.6714 7.6682C16.4549 8.39025 16.3056 9.10602 16.2392 9.72951C16.207 10.0317 16.185 10.3952 16.2107 10.7669C16.2234 10.9503 16.2527 11.2151 16.3329 11.5119C16.398 11.7527 16.5776 12.3324 17.0814 12.8735L21.4724 8.7846C21.9367 9.28324 22.0842 9.79523 22.1249 9.94558C22.1806 10.1518 22.193 10.3033 22.1964 10.3532C22.2037 10.4576 22.1939 10.4727 22.2054 10.3652C22.2263 10.1692 22.2901 9.82016 22.4187 9.39107C22.5454 8.96827 22.7149 8.53549 22.9164 8.15411C23.1226 7.7636 23.3207 7.50591 23.4725 7.36046L19.321 3.02854ZM21.5225 7.94506C21.5225 5.72559 19.7252 3.91626 17.4957 3.91626V9.91626C16.4004 9.91626 15.5225 9.02815 15.5225 7.94506H21.5225ZM21.5101 8.26185C21.5184 8.15644 21.5225 8.05076 21.5225 7.94506H15.5225C15.5225 7.89344 15.5246 7.84181 15.5286 7.7903L21.5101 8.26185ZM21.1434 12.9125L21.5101 8.26185L15.5286 7.7903L15.162 12.4409L21.1434 12.9125ZM28.5395 9.97015C24.6993 7.65947 20.0481 7.88842 16.5287 10.1543L19.7767 15.1991C21.4475 14.1234 23.6398 14.0244 25.446 15.1112L28.5395 9.97015ZM28.1277 9.76356L28.1043 9.75421L25.8812 15.3272L25.9046 15.3365L28.1277 9.76356ZM24.445 11.0044L24.4429 11.0079L29.5895 14.0922L29.5916 14.0887L24.445 11.0044ZM28.5693 9.97859L28.5658 9.97649L25.4708 15.1166L25.4743 15.1187L28.5693 9.97859ZM32.4551 25.6008C35.6869 20.2145 33.9513 13.2206 28.5697 9.97886L25.4738 15.1184C28.0158 16.6497 28.8418 19.961 27.3101 22.5138L32.4551 25.6008ZM29.9378 29.7803L32.4525 25.6051L27.3127 22.5095L24.798 26.6847L29.9378 29.7803ZM16.5295 34.692C21.4934 36.3884 27.1308 34.4586 29.9404 29.776L24.7955 26.689C23.4691 28.8997 20.8076 29.8133 18.4699 29.0144L16.5295 34.692ZM5.05895 29.776C7.86855 34.4586 13.506 36.3884 18.4699 34.692L16.5295 29.0144C14.1917 29.8133 11.5303 28.8997 10.2039 26.689L5.05895 29.776ZM2.54687 25.6051L5.06153 29.7803L10.2013 26.6847L7.68665 22.5095L2.54687 25.6051ZM6.42961 9.97886C1.0481 13.2206 -0.687561 20.2145 2.54429 25.6008L7.68922 22.5138C6.15751 19.961 6.98352 16.6497 9.52555 15.1184L6.42961 9.97886ZM6.43349 9.97652L6.43001 9.97862L9.52515 15.1187L9.52864 15.1166L6.43349 9.97652ZM10.5559 11.0071L10.5539 11.0036L5.40828 14.0895L5.41037 14.093L10.5559 11.0071ZM6.89502 9.75422L6.87159 9.76357L9.09473 15.3365L9.11816 15.3272L6.89502 9.75422ZM18.4594 10.147C14.9414 7.88795 10.296 7.66192 6.45987 9.97015L9.55332 15.1112C11.3577 14.0255 13.5472 14.1232 15.2174 15.1957L18.4594 10.147ZM13.4814 8.26185L13.8477 12.9072L19.8291 12.4356L19.4629 7.7903L13.4814 8.26185ZM17.1782 3.92881C14.9561 4.10468 13.307 6.04953 13.4814 8.26185L19.4629 7.7903C19.548 8.86976 18.7431 9.82371 17.6516 9.9101L17.1782 3.92881ZM17.4957 3.91626C17.3898 3.91626 17.2838 3.92045 17.1782 3.92881L17.6516 9.9101C17.5997 9.91421 17.5478 9.91626 17.4957 9.91626V3.91626Z" fill="white" mask="url(#path-1-outside-1_256_3612)"/><path fill-rule="evenodd" clip-rule="evenodd" d="M17.4956 6.91628C18.0627 6.91628 18.5224 7.37689 18.5224 7.94508C18.5224 7.97211 18.5213 7.99914 18.5192 8.02609L18.0404 14.0993C18.0179 14.3841 17.7807 14.6038 17.4956 14.6038C17.2104 14.6038 16.9732 14.3841 16.9508 14.0993L16.472 8.02609C16.4273 7.45966 16.8494 6.96421 17.4147 6.91947C17.4416 6.91734 17.4686 6.91628 17.4956 6.91628Z" fill="#743D00"/><path fill-rule="evenodd" clip-rule="evenodd" d="M7.98348 12.5501L8.00691 12.5408C11.9685 10.157 17.1085 11.4411 19.4894 15.4093L22.0041 19.5845C24.3859 23.5541 23.1051 28.7067 19.1433 31.0932C19.1421 31.0939 19.141 31.0946 19.1398 31.0953L19.1143 31.1011C15.1527 33.4849 10.0127 32.2008 7.63174 28.2326L5.11708 24.0574C2.7353 20.0878 4.01613 14.9352 7.9779 12.5487C7.97906 12.548 7.98023 12.5473 7.98139 12.5466L7.98348 12.5501Z" fill="#FF4B4B"/><path fill-rule="evenodd" clip-rule="evenodd" d="M27.0165 12.5501L26.9931 12.5408C23.0315 10.157 17.8915 11.4411 15.5105 15.4093L12.9959 19.5845C10.6141 23.5541 11.8949 28.7067 15.8567 31.0932C15.8579 31.0939 15.859 31.0946 15.8602 31.0953L15.8857 31.1012C19.8473 33.4849 24.9873 32.2008 27.3683 28.2326L29.8829 24.0574C32.2647 20.0878 30.9839 14.9352 27.0221 12.5487C27.0209 12.548 27.0198 12.5473 27.0186 12.5466L27.0165 12.5501Z" fill="#FF4B4B"/><path d="M11.3344 21.482C13.008 21.482 14.3647 20.1234 14.3647 18.4475C14.3647 16.7715 13.008 15.4129 11.3344 15.4129C9.66088 15.4129 8.3042 16.7715 8.3042 18.4475C8.3042 20.1234 9.66088 21.482 11.3344 21.482Z" fill="#FF7878"/><path fill-rule="evenodd" clip-rule="evenodd" d="M27.0982 3.52553C26.7388 3.13955 23.1924 3.47398 21.3971 5.1945C19.6018 6.91501 18.9611 10.4895 19.2772 10.829C19.5934 11.1686 23.1876 10.829 25.038 9.1044C26.8883 7.37976 27.4576 3.91151 27.0982 3.52553Z" fill="#5ABB1A"/><path d="M25.1727 24.9211C26.121 24.9211 26.8898 24.1513 26.8898 23.2016C26.8898 22.2519 26.121 21.482 25.1727 21.482C24.2244 21.482 23.4556 22.2519 23.4556 23.2016C23.4556 24.1513 24.2244 24.9211 25.1727 24.9211Z" fill="#EA2B2B"/><path d="M22.6472 27.7534C23.3166 27.7534 23.8592 27.2099 23.8592 26.5396C23.8592 25.8692 23.3166 25.3258 22.6472 25.3258C21.9777 25.3258 21.4351 25.8692 21.4351 26.5396C21.4351 27.2099 21.9777 27.7534 22.6472 27.7534Z" fill="#EA2B2B"/></svg>